<svg height="512pt" viewBox="0 0 512 512.00096" width="512pt" xmlns="http://www.w3.org/2000/svg"><path d="m25.601562 110.933594h460.800782c9.421875 0 17.066406 7.640625 17.066406 17.066406v76.800781c0 4.714844-3.820312 8.535157-8.535156 8.535157h-477.867188c-4.710937 0-8.53125-3.820313-8.53125-8.535157v-76.800781c0-9.425781 7.640625-17.066406 17.066406-17.066406zm0 0" fill="#a4c2f7"/><path d="m25.601562 110.933594h439.464844c9.425782 0 17.066406 7.640625 17.066406 17.066406v76.800781c0 4.714844-3.820312 8.535157-8.53125 8.535157h-456.535156c-4.710937 0-8.53125-3.820313-8.53125-8.535157v-76.800781c0-9.425781 7.640625-17.066406 17.066406-17.066406zm0 0" fill="#e3e7f2"/><path d="m503.46875 409.601562v76.800782c-.03125 9.414062-7.652344 17.039062-17.066406 17.066406h-460.800782c-9.414062-.027344-17.039062-7.652344-17.066406-17.066406v-76.800782c0-4.714843 3.820313-8.535156 8.53125-8.535156h477.867188c4.714844 0 8.535156 3.820313 8.535156 8.535156zm0 0" fill="#a4c2f7"/><path d="m482.132812 409.601562v76.800782c.210938 9.179687-7.035156 16.804687-16.210937 17.066406h-436.90625c-9.179687-.261719-16.425781-7.886719-16.214844-17.066406v-76.800782c-.105469-4.585937 3.507813-8.394531 8.089844-8.535156h453.121094c4.59375.121094 8.226562 3.9375 8.121093 8.535156zm0 0" fill="#e3e7f2"/><path d="m25.601562 213.335938h460.800782v187.730468h-460.800782zm0 0" fill="#a4c2f7"/><path d="m25.601562 213.335938h439.464844v187.730468h-439.464844zm0 0" fill="#e3e7f2"/><path d="m503.382812 23.722656c.425782 4.398438-.933593 8.785156-3.777343 12.171875-2.839844 3.386719-6.921875 5.488281-11.328125 5.835938-.140625.035156-.28125.0625-.425782.082031l-318.039062 20.738281-18.003906 1.195313-1.535156-18.007813 8.960937-1.023437 325.714844-36.09375c4.460937-.515625 8.941406.800781 12.414062 3.648437 3.476563 2.84375 5.644531 6.976563 6.019531 11.453125zm0 0" fill="#d4e1f4"/><path d="m68.265625 187.734375c-14.136719 0-25.597656-11.460937-25.597656-25.601563 0-14.136718 11.460937-25.597656 25.597656-25.597656 14.140625 0 25.601563 11.460938 25.601563 25.597656 0 14.140626-11.460938 25.601563-25.601563 25.601563zm0 0" fill="#e3e7f2"/><path d="m162.132812 477.867188c-14.136718 0-25.597656-11.460938-25.597656-25.597657 0-14.140625 11.460938-25.601562 25.597656-25.601562 14.140626 0 25.601563 11.460937 25.601563 25.601562 0 14.136719-11.460937 25.597657-25.601563 25.597657zm0 0" fill="#e3e7f2"/><path d="m256 187.734375c-14.136719 0-25.597656-11.460937-25.597656-25.601563 0-14.136718 11.460937-25.597656 25.597656-25.597656 14.140625 0 25.601562 11.460938 25.601562 25.597656 0 14.140626-11.460937 25.601563-25.601562 25.601563zm0 0" fill="#e3e7f2"/><path d="m349.867188 477.867188c-14.136719 0-25.601563-11.460938-25.601563-25.597657 0-14.140625 11.464844-25.601562 25.601563-25.601562 14.136718 0 25.601562 11.460937 25.601562 25.601562 0 14.136719-11.464844 25.597657-25.601562 25.597657zm0 0" fill="#e3e7f2"/><path d="m443.734375 187.734375c-14.140625 0-25.601563-11.460937-25.601563-25.601563 0-14.136718 11.460938-25.597656 25.601563-25.597656 14.136719 0 25.597656 11.460938 25.597656 25.597656 0 14.140626-11.460937 25.601563-25.597656 25.601563zm0 0" fill="#e3e7f2"/><path d="m154.882812 54.402344c-.828124-9.390625-12.914062-15.996094-27-14.757813-14.082031 1.238281-24.832031 9.855469-24.003906 19.246094.824219 9.390625 12.914063 15.996094 26.996094 14.757813 14.085938-1.242188 24.832031-9.859376 24.007812-19.246094zm0 0" fill="#d4e1f4"/><path d="m34.132812 486.402344v-76.800782c0-4.714843 3.820313-8.535156 8.535157-8.535156h8.53125v-187.730468h-8.53125c-4.714844 0-8.535157-3.820313-8.535157-8.535157v-76.800781c0-9.425781 7.640626-17.066406 17.066407-17.066406h-25.597657c-9.425781 0-17.066406 7.640625-17.066406 17.066406v76.800781c0 4.714844 3.820313 8.535157 8.53125 8.535157h8.535156v187.730468h-8.535156c-4.710937 0-8.53125 3.820313-8.53125 8.535156v76.800782c.027344 9.414062 7.652344 17.039062 17.066406 17.066406h25.597657c-9.414063-.027344-17.039063-7.652344-17.066407-17.066406zm0 0" fill="#fff"/><path d="m130.875 73.652344c3.355469-.289063 6.660156-1.03125 9.816406-2.210938-5.808594-1.738281-10.140625-6.59375-11.214844-12.558594-.613281-7.042968 5.273438-13.65625 14.199219-17.070312-5.015625-1.96875-10.429687-2.722656-15.792969-2.207031-14.082031 1.234375-24.832031 9.855469-24.007812 19.242187.828125 9.386719 12.921875 16.042969 27 14.804688zm0 0" fill="#fff"/><path d="m484.949219 8.621094-312.652344 34.644531c1.289063.746094 2.492187 1.625 3.59375 2.628906v-.15625l8.957031-1.023437 309.640625-34.3125c-2.933593-1.523438-6.253906-2.144532-9.539062-1.78125zm0 0" fill="#fff"/><path d="m494.933594 221.867188h-477.867188c-9.425781 0-17.066406-7.640626-17.066406-17.066407v-76.800781c0-14.136719 11.460938-25.597656 25.601562-25.597656h460.800782c14.136718 0 25.597656 11.460937 25.597656 25.597656v76.800781c0 9.425781-7.640625 17.066407-17.066406 17.066407zm-469.332032-102.398438c-4.714843 0-8.535156 3.820312-8.535156 8.53125v76.800781h477.867188v-76.800781c0-4.710938-3.820313-8.53125-8.53125-8.53125zm0 0" fill="#428dff"/><path d="m486.402344 512h-460.800782c-14.140624 0-25.601562-11.460938-25.601562-25.597656v-76.800782c0-9.425781 7.640625-17.066406 17.066406-17.066406h477.867188c9.425781 0 17.066406 7.640625 17.066406 17.066406v76.800782c0 14.136718-11.460938 25.597656-25.597656 25.597656zm-469.335938-102.398438v76.800782c0 4.710937 3.820313 8.53125 8.535156 8.53125h460.800782c4.710937 0 8.53125-3.820313 8.53125-8.53125v-76.800782zm0 0" fill="#428dff"/><path d="m34.132812 213.335938v187.730468h-17.066406v-187.730468zm0 0" fill="#fff"/><g fill="#428dff"><path d="m25.601562 256c4.710938 0 8.53125-3.820312 8.53125-8.53125v-34.132812h-17.066406v34.132812c0 4.710938 3.820313 8.53125 8.535156 8.53125zm0 0"/><path d="m17.066406 401.066406h17.066406v-85.332031c0-4.714844-3.820312-8.535156-8.53125-8.535156-4.714843 0-8.535156 3.820312-8.535156 8.535156zm0 0"/><path d="m34.132812 281.601562c-.03125-2.257812-.914062-4.421874-2.472656-6.058593l-1.28125-1.023438c-.476562-.324219-.992187-.582031-1.535156-.769531-.484375-.246094-1-.417969-1.535156-.511719-.566406-.09375-1.136719-.152343-1.707032-.171875-2.261718.035156-4.421874.917969-6.058593 2.476563-.773438.816406-1.378907 1.769531-1.792969 2.816406-1.289062 3.179687-.585938 6.824219 1.792969 9.300781.816406.769532 1.769531 1.378906 2.816406 1.792969 1.023437.4375 2.125.667969 3.242187.679687 2.257813-.03125 4.421876-.914062 6.058594-2.472656 1.558594-1.636718 2.441406-3.800781 2.472656-6.058594zm0 0"/><path d="m486.402344 409.601562h-460.800782c-4.714843 0-8.535156-3.820312-8.535156-8.535156 0-4.710937 3.820313-8.53125 8.535156-8.53125h452.265626v-170.667968h-452.265626c-4.714843 0-8.535156-3.820313-8.535156-8.53125 0-4.714844 3.820313-8.535157 8.535156-8.535157h460.800782c4.710937 0 8.53125 3.820313 8.53125 8.535157v187.730468c0 4.714844-3.820313 8.535156-8.53125 8.535156zm0 0"/><path d="m68.265625 187.734375c-14.136719 0-25.597656-11.460937-25.597656-25.601563 0-14.136718 11.460937-25.597656 25.597656-25.597656 14.140625 0 25.601563 11.460938 25.601563 25.597656 0 14.140626-11.460938 25.601563-25.601563 25.601563zm0-34.132813c-4.710937 0-8.53125 3.820313-8.53125 8.53125 0 4.714844 3.820313 8.535157 8.53125 8.535157 4.714844 0 8.535156-3.820313 8.535156-8.535157 0-4.710937-3.820312-8.53125-8.535156-8.53125zm0 0"/><path d="m162.132812 477.867188c-14.136718 0-25.597656-11.460938-25.597656-25.597657 0-14.140625 11.460938-25.601562 25.597656-25.601562 14.140626 0 25.601563 11.460937 25.601563 25.601562 0 14.136719-11.460937 25.597657-25.601563 25.597657zm0-34.132813c-4.710937 0-8.53125 3.820313-8.53125 8.535156 0 4.710938 3.820313 8.53125 8.53125 8.53125 4.714844 0 8.535157-3.820312 8.535157-8.53125 0-4.714843-3.820313-8.535156-8.535157-8.535156zm0 0"/><path d="m256 187.734375c-14.136719 0-25.597656-11.460937-25.597656-25.601563 0-14.136718 11.460937-25.597656 25.597656-25.597656 14.140625 0 25.601562 11.460938 25.601562 25.597656 0 14.140626-11.460937 25.601563-25.601562 25.601563zm0-34.132813c-4.710938 0-8.53125 3.820313-8.53125 8.53125 0 4.714844 3.820312 8.535157 8.53125 8.535157 4.714844 0 8.535156-3.820313 8.535156-8.535157 0-4.710937-3.820312-8.53125-8.535156-8.53125zm0 0"/><path d="m349.867188 477.867188c-14.136719 0-25.601563-11.460938-25.601563-25.597657 0-14.140625 11.464844-25.601562 25.601563-25.601562 14.136718 0 25.601562 11.460937 25.601562 25.601562 0 14.136719-11.464844 25.597657-25.601562 25.597657zm0-34.132813c-4.710938 0-8.535157 3.820313-8.535157 8.535156 0 4.710938 3.824219 8.53125 8.535157 8.53125 4.710937 0 8.535156-3.820312 8.535156-8.53125 0-4.714843-3.824219-8.535156-8.535156-8.535156zm0 0"/><path d="m443.734375 187.734375c-14.140625 0-25.601563-11.460937-25.601563-25.601563 0-14.136718 11.460938-25.597656 25.601563-25.597656 14.136719 0 25.597656 11.460938 25.597656 25.597656 0 14.140626-11.460937 25.601563-25.597656 25.601563zm0-34.132813c-4.714844 0-8.535156 3.820313-8.535156 8.53125 0 4.714844 3.820312 8.535157 8.535156 8.535157 4.710937 0 8.53125-3.820313 8.53125-8.535157 0-4.710937-3.820313-8.53125-8.53125-8.53125zm0 0"/><path d="m157.183594 444.503906c-3.714844 0-7.019532-2.375-8.199219-5.898437l-83.882813-257.527344c-1.09375-2.9375-.488281-6.234375 1.574219-8.59375s5.25-3.398437 8.304688-2.707031c3.054687.691406 5.488281 3.003906 6.335937 6.019531l83.625 256.800781c.46875 1.078125.707032 2.238282.699219 3.414063-.023437 4.667969-3.789063 8.449219-8.457031 8.492187zm0 0"/><path d="m344.917969 444.503906c-3.71875 0-7.019531-2.375-8.199219-5.898437l-83.558594-256.800781c-.464844-1.0625-.703125-2.210938-.699218-3.371094 0-4.695313 3.792968-8.511719 8.488281-8.535156h.085937c3.695313 0 6.972656 2.382812 8.113282 5.898437l83.558593 256.84375c.472657 1.078125.710938 2.238281.703125 3.414063-.046875 4.664062-3.828125 8.425781-8.492187 8.449218zm0 0"/><path d="m354.902344 444.503906c-2.902344.015625-5.617188-1.441406-7.203125-3.871094-1.585938-2.433593-1.828125-5.503906-.640625-8.152343l83.523437-256.691407c1.246094-4.066406 5.292969-6.59375 9.492188-5.929687s7.269531 4.316406 7.199219 8.566406c.003906 1.199219-.246094 2.390625-.730469 3.488281l-83.527344 256.699219c-1.144531 3.511719-4.417969 5.890625-8.113281 5.890625zm0 0"/><path d="m167.167969 444.503906c-2.902344.015625-5.617188-1.441406-7.203125-3.871094-1.585938-2.433593-1.824219-5.503906-.636719-8.152343l83.523437-256.691407c1.246094-4.066406 5.289063-6.59375 9.488282-5.929687 4.199218.664063 7.269531 4.316406 7.203125 8.566406 0 1.199219-.25 2.390625-.734375 3.488281l-83.523438 256.699219c-1.148437 3.511719-4.421875 5.890625-8.117187 5.890625zm0 0"/><path d="m110.933594 477.867188h-102.398438c-4.714844 0-8.535156-3.820313-8.535156-8.53125 0-4.714844 3.820312-8.535157 8.535156-8.535157h102.398438c4.714844 0 8.535156 3.820313 8.535156 8.535157 0 4.710937-3.820312 8.53125-8.535156 8.53125zm0 0"/><path d="m110.933594 443.734375h-102.398438c-4.714844 0-8.535156-3.820313-8.535156-8.535156 0-4.710938 3.820312-8.53125 8.535156-8.53125h102.398438c4.714844 0 8.535156 3.820312 8.535156 8.53125 0 4.714843-3.820312 8.535156-8.535156 8.535156zm0 0"/><path d="m503.46875 477.867188h-102.402344c-4.710937 0-8.53125-3.820313-8.53125-8.53125 0-4.714844 3.820313-8.535157 8.53125-8.535157h102.402344c4.710938 0 8.53125 3.820313 8.53125 8.535157 0 4.710937-3.820312 8.53125-8.53125 8.53125zm0 0"/><path d="m503.46875 443.734375h-102.402344c-4.710937 0-8.53125-3.820313-8.53125-8.535156 0-4.710938 3.820313-8.53125 8.53125-8.53125h102.402344c4.710938 0 8.53125 3.820312 8.53125 8.53125 0 4.714843-3.820312 8.535156-8.53125 8.535156zm0 0"/><path d="m298.667969 443.734375h-85.335938c-4.710937 0-8.53125-3.820313-8.53125-8.535156 0-4.710938 3.820313-8.53125 8.53125-8.53125h85.335938c4.710937 0 8.53125 3.820312 8.53125 8.53125 0 4.714843-3.820313 8.535156-8.53125 8.535156zm0 0"/><path d="m298.667969 477.867188h-85.335938c-4.710937 0-8.53125-3.820313-8.53125-8.53125 0-4.714844 3.820313-8.535157 8.53125-8.535157h85.335938c4.710937 0 8.53125 3.820313 8.53125 8.535157 0 4.710937-3.820313 8.53125-8.53125 8.53125zm0 0"/><path d="m204.800781 187.734375h-85.332031c-4.714844 0-8.535156-3.820313-8.535156-8.535156 0-4.710938 3.820312-8.53125 8.535156-8.53125h85.332031c4.710938 0 8.53125 3.820312 8.53125 8.53125 0 4.714843-3.820312 8.535156-8.53125 8.535156zm0 0"/><path d="m204.800781 153.601562h-85.332031c-4.714844 0-8.535156-3.820312-8.535156-8.535156 0-4.710937 3.820312-8.53125 8.535156-8.53125h85.332031c4.710938 0 8.53125 3.820313 8.53125 8.53125 0 4.714844-3.820312 8.535156-8.53125 8.535156zm0 0"/><path d="m392.535156 153.601562h-85.335937c-4.710938 0-8.53125-3.820312-8.53125-8.535156 0-4.710937 3.820312-8.53125 8.53125-8.53125h85.335937c4.710938 0 8.53125 3.820313 8.53125 8.53125 0 4.714844-3.820312 8.535156-8.53125 8.535156zm0 0"/><path d="m392.535156 187.734375h-85.335937c-4.710938 0-8.53125-3.820313-8.53125-8.535156 0-4.710938 3.820312-8.53125 8.53125-8.53125h85.335937c4.710938 0 8.53125 3.820312 8.53125 8.53125 0 4.714843-3.820312 8.535156-8.53125 8.535156zm0 0"/><path d="m127.503906 82.332031c-6.675781.085938-13.269531-1.488281-19.191406-4.582031-7.089844-3.464844-11.957031-10.277344-12.933594-18.109375-1.253906-14.300781 12.695313-26.8125 31.769532-28.492187 19.070312-1.683594 34.984374 8.214843 36.25 22.511718 1.261718 14.292969-12.691407 26.808594-31.753907 28.492188-1.394531.117187-2.773437.179687-4.140625.179687zm3.839844-34.304687c-.851562 0-1.78125 0-2.710938.117187-10.378906.921875-16.554687 6.539063-16.214843 10.003907.589843 2.09375 2.109375 3.800781 4.121093 4.625 4.234376 2.074218 8.96875 2.898437 13.65625 2.378906 10.367188-.921875 16.554688-6.535156 16.210938-10-.304688-3.15625-6.1875-7.125-15.0625-7.125zm0 0"/><path d="m151.84375 72.285156c-4.714844.15625-8.660156-3.542968-8.8125-8.253906-.152344-4.714844 3.542969-8.65625 8.257812-8.8125l336.007813-21.9375c2.230469-.136719 4.308594-1.179688 5.75-2.882812 1.390625-1.675782 2.054687-3.832032 1.847656-5.996094-.207031-2.164063-1.265625-4.15625-2.949219-5.535156-1.695312-1.359376-3.863281-1.988282-6.023437-1.75l-334.71875 37.097656c-4.683594.515625-8.902344-2.859375-9.421875-7.546875-.519531-4.683594 2.859375-8.902344 7.542969-9.417969l334.679687-37.085938c6.742188-.773437 13.511719 1.214844 18.765625 5.511719 5.253907 4.296875 8.546875 10.535157 9.128907 17.296875.601562 6.65625-1.472657 13.277344-5.761719 18.398438-4.289063 5.125-10.441407 8.328125-17.097657 8.910156l-336.632812 21.988281zm0 0"/></g></svg>